<?xml version="1.0" encoding="UTF-8"?>
<svg id="Calque_2" xmlns="http://www.w3.org/2000/svg" xmlns:xlink="http://www.w3.org/1999/xlink" viewBox="0 0 436.26 783.74">
  <defs>
    <style>
      .cls-1 {
        letter-spacing: -.03em;
      }

      .cls-2 {
        fill: url(#Dégradé_sans_nom_14);
      }

      .cls-3 {
        letter-spacing: .05em;
      }

      .cls-4 {
        letter-spacing: 0em;
      }

      .cls-5 {
        fill: #f4983b;
        font-family: Constantia, Constantia;
        font-size: 73.21px;
      }

      .cls-6 {
        fill: #504f4f;
        font-family: Constantia-Bold, Constantia;
        font-size: 106.44px;
        font-weight: 700;
      }

      .cls-7 {
        letter-spacing: -.01em;
      }

      .cls-8 {
        letter-spacing: 0em;
      }

      .cls-9 {
        fill: #f29d40;
      }
    </style>
    <radialGradient id="Dégradé_sans_nom_14" data-name="Dégradé sans nom 14" cx="216.02" cy="271.07" fx="216.02" fy="271.07" r="244.5" gradientUnits="userSpaceOnUse">
      <stop offset=".87" stop-color="#6b6d75"/>
      <stop offset="1" stop-color="#504f4f"/>
    </radialGradient>
  </defs>
  <g id="Calque_1-2" data-name="Calque_1">
    <g id="Logo">
      <g>
        <path class="cls-2" d="M356.5,300.39c-10.99-3.6-22.01-7.13-32.96-10.83-14.79-5-29.52-10.18-44.3-15.22-40.57-13.85-81.15-27.68-121.73-41.49-29.37-10-58.75-19.96-88.13-29.95-21.11-7.18-42.19-14.46-63.35-21.5-3.57-1.19-4.7-2.81-4.66-6.67.27-23.98.26-47.96.21-71.94-.03-14.97,7.29-25.53,19.59-33.07,5.15-3.16,11.26-2.55,16.97-3.38,31.31-4.57,61.25-13.82,90.38-25.94,23.99-9.99,46.95-21.92,69.04-35.63,11.22-6.96,23.06-6.15,33.29,1.5,28.89,21.6,61.79,34.24,95.88,44.34,26.18,7.76,52.87,13.29,79.88,17.3,12.53,1.86,21.25,12.67,22.14,25.74,1.07,15.7,2.33,31.37,1.8,47.12-.57,16.81-1.81,33.6-4.39,50.19-1.77,11.4-3.02,22.85-4.61,34.26-.48,3.44-1.46,4.07-4.73,3.22-9.13-2.39-18.34-4.47-27.53-6.58-1.42-.33-2.48-.85-3.04-2.22.41-2.11.99-4.21,1.19-6.35,1.14-12.22,2.24-24.45,3.24-36.69.71-8.76,1.08-17.55,1.88-26.3,1.29-14.05,2.99-28.06,3.23-42.18.11-6.61-2.95-9.53-9.79-9.63-3.33-.05-6.58-.24-9.86-1.17-8.3-2.36-16.68-4.39-25.03-6.59-22.58-5.94-44.92-12.73-66.55-21.49-20.82-8.43-41.5-17.26-60.8-28.94-2.25-1.36-4.26-2.06-6.96-.8-5.84,2.73-11.61,5.61-17.58,8.12-11.86,4.97-23.33,10.9-35.16,15.95-19.34,8.26-38.63,16.67-58.54,23.5-17.04,5.85-33.85,12.78-52.53,11.27-5.15-.42-8.39,2.72-9.92,7.43-.82,2.51-1.36,5.17-1.58,7.8-.91,10.76-1.53,21.55-2.56,32.3-.21,2.23.49,2.95,2.23,3.63,6.63,2.57,13.15,5.47,20.24,6.64,1.72,2.64,4.75,2.8,7.31,3.69,55.14,19.08,110.3,38.13,165.47,57.12,43.7,15.04,87.43,29.99,131.13,45.02,15.57,5.35,31.09,10.83,46.67,16.17,2,.68,3.19,1.38,2.67,3.82-2.14,10.01-4.25,19.95-7.47,29.76-2.86,8.72-5.24,17.65-8.58,26.22-4.93,12.67-9.21,25.57-15.66,37.69-6.11,11.48-11.61,23.3-18.54,34.34-21.13,33.63-46.74,63.37-77.05,89.1-16.93,14.37-35.2,26.7-54.33,37.87-11.12,6.5-22.52,6.76-33.96,1.59-33.3-15.03-62.3-36.14-87.36-62.69-25.44-26.96-45.49-57.58-61.88-90.75-20.03-40.55-33.08-83.37-42.18-127.5-1.74-8.45-2.31-17.13-3.56-25.68-.39-2.64.14-3.14,2.8-2.46,12.88,3.3,25.8,6.41,38.71,9.58-.05,2.16-.27,4.33-.13,6.48,1.81,26.94,7.71,53.05,15.96,78.7,8.47,26.34,20.98,50.69,36.06,73.76,17.58,26.9,38.6,50.8,63.74,70.9,15.15,12.12,30.86,23.43,48.17,32.38,4.21,2.17,8.34,3.01,12.75.55,11.16-6.23,21.5-13.74,31.81-21.2,20.44-14.79,39.2-31.59,56.08-50.37,13.17-14.65,25.03-30.34,35.08-47.3,9.74-16.44,17.98-33.63,23.57-51.95,2.22-7.28,4.67-14.57,4.95-22.3.06-1.56.49-3.45-1.82-4.07-5.11-1.39-10.22-2.82-15.32-4.23Z"/>
        <path class="cls-9" d="M356.5,300.39c5.11,1.41,10.21,2.84,15.32,4.23,2.3.63,1.87,2.51,1.82,4.07-.28,7.73-2.73,15.02-4.95,22.3-5.59,18.32-13.83,35.51-23.57,51.95-10.05,16.96-21.91,32.65-35.08,47.3-16.89,18.78-35.65,35.58-56.08,50.37-10.31,7.46-20.64,14.98-31.81,21.2-4.41,2.46-8.54,1.63-12.75-.55-17.3-8.94-33.02-20.26-48.17-32.38-25.14-20.11-46.16-44-63.74-70.9-15.07-23.07-27.58-47.42-36.06-73.76-8.25-25.65-14.15-51.76-15.96-78.7-.14-2.15.07-4.32.13-6.48,7.17-.43,13.34,3.6,20.21,4.57,1.86.26,1.82,2.19,1.99,3.64,1.28,11.01,3.07,21.93,5.42,32.77,3.85,17.71,9.29,34.89,16.22,51.63,7.85,18.96,17.19,37.2,28.59,54.18,7.94,11.82,16.76,23.08,26.49,33.75,15.33,16.8,31.9,31.96,50.21,45.29,5.86,4.26,12.17,7.9,18.09,12.08,2.09,1.48,3.41,1.53,5.68.2,18.65-10.92,35.47-24.21,51.21-38.93,23.23-21.73,43.27-46.13,59.43-73.5,11.91-20.17,21.35-41.56,27.35-64.32Z"/>
        <path class="cls-9" d="M61.4,156.15c-7.09-1.17-13.61-4.07-20.24-6.64-1.74-.67-2.44-1.4-2.23-3.63,1.03-10.75,1.65-21.54,2.56-32.3.22-2.63.76-5.29,1.58-7.8,1.53-4.71,4.77-7.84,9.92-7.43,18.67,1.51,35.48-5.42,52.53-11.27,19.91-6.83,39.2-15.24,58.54-23.5,11.83-5.06,23.29-10.98,35.16-15.95,5.97-2.5,11.74-5.38,17.58-8.12,2.7-1.26,4.71-.57,6.96.8,19.3,11.68,39.98,20.51,60.8,28.94,21.64,8.76,43.97,15.55,66.55,21.49,8.34,2.19,16.73,4.23,25.03,6.59,3.28.93,6.52,1.12,9.86,1.17,6.85.1,9.91,3.02,9.79,9.63-.24,14.12-1.95,28.13-3.23,42.18-.8,8.75-1.17,17.54-1.88,26.3-1,12.24-2.1,24.46-3.24,36.69-.2,2.14-.78,4.23-1.19,6.35-6.56-.96-13.11-2.01-19.69-2.84-3.03-.38-3.33-2.28-3.12-4.62.97-10.76,1.96-21.52,2.97-32.28,1.17-12.57,2.39-25.13,3.53-37.69.54-5.96.87-11.94,1.44-17.9.32-3.35-.97-4.79-4.36-5.1-14.75-1.34-29.21-4.12-43.57-7.83-24.51-6.33-47.92-15.37-70.27-27.2-9.96-5.27-19.73-10.91-28.8-17.57-3.86-2.84-6.89-1.93-9.8.39-11.77,9.38-25.34,15.54-38.81,21.81-28.47,13.25-58.13,23.07-88.72,30.19-6.62,1.54-13.2,3.24-19.94,4.16-3.9.53-5.47,2.21-5.36,6.57.22,8.8.55,17.64-.35,26.44Z"/>
      </g>
      <text class="cls-6" transform="translate(0 693.8)"><tspan class="cls-7" x="0" y="0">S</tspan><tspan class="cls-1" x="55.07" y="0">E</tspan><tspan class="cls-4" x="115.95" y="0">CURIS</tspan></text>
      <text class="cls-5" transform="translate(32.27 765.41)"><tspan class="cls-3" x="0" y="0">SE</tspan><tspan class="cls-8" x="87.14" y="0">R</tspan><tspan class="cls-3" x="133.81" y="0">VICES</tspan></text>
    </g>
  </g>
</svg>